<svg id="Capa_1" data-name="Capa 1" xmlns="http://www.w3.org/2000/svg" viewBox="0 0 811.46 636.61"><defs><style>.cls-1{fill:none;stroke:#000;stroke-miterlimit:10;}</style></defs><title>Plantilla Strat</title><path class="cls-1" d="M896.38,292.85c46.08-44.64,26.19-68.85,15.3-75C905.05,214,891.45,212.34,884,214c-9,2-17.88,4.27-26.87,6.19-16.34,3.49-32.81,6.27-49.38,8.46q-20.22,2.67-40.56,4.1c-14.85,1-29.72,1.26-44.61,1.09-18.59-.21-36.76-3.29-54.78-7.49-33.12-7.71-65-19.19-96.13-32.63a560.41,560.41,0,0,0-75.63-26.86,366,366,0,0,0-47.17-9.7c-5.46-.73-11-1.1-16.46-1.65-.78-.08-1.55-.28-2.33-.42H413.3c-1.58.16-3.16.37-4.74.46-17.71,1-35.15,3.56-52,9.17-14.79,4.92-28.43,11.95-40.09,22.47-15.29,13.8-24.41,31-28,51.22A90.84,90.84,0,0,0,287.09,257c.06,1.75.24,3.5.38,5.51,1,0,1.8.11,2.64.11h27.12c.8,0,1.6,0,2.39,0,5.2.3,9,3,10.51,8a24.88,24.88,0,0,1,1,7.07c.07,19,0,38.08,0,57.12q0,61.8,0,123.6a40.14,40.14,0,0,1-.44,6.2c-1.2,7.46-6.52,12.08-14.08,12.15-6.8.06-13.6-.07-20.4-.1h-8.4c-.08.94-.2,1.78-.23,2.62-.66,19.19-1.18,38.38-2,57.56a165.83,165.83,0,0,1-20.38,72.55,183.23,183.23,0,0,1-22.2,32.41c-10.91,12.67-21.2,25.84-31.57,39q-16,20.24-31.92,40.52a54.42,54.42,0,0,0-10.87,22.74c-.33,1.62-.77,3.22-1.16,4.83v4.32c.38,1.52.81,3,1.13,4.58,1.3,6.34,4.54,11.68,8.41,16.72a38.08,38.08,0,0,0,26.59,15.28c2,.25,4.07.57,6.11.86H216c2.14-.23,4.27-.49,6.41-.7,15.49-1.52,30.5-5.42,45.59-9,27.64-6.55,54.09-16.56,80.36-27.08,48.26-19.32,95.46-41,142.44-63.28,22.42-10.61,45.56-19.48,70-24.5A273.24,273.24,0,0,1,600.49,661a206.35,206.35,0,0,1,27.58.22,253.1,253.1,0,0,1,39.26,6.35c25.12,6,49.2,15,72.79,25.44,11.4,5,22.7,10.34,34.23,15.08a311.12,311.12,0,0,0,66.22,19.09,251.86,251.86,0,0,0,58.55,3.42c13.2-.85,26.26-2.64,38.93-6.57a160.1,160.1,0,0,0,24.22-9.77,63.72,63.72,0,0,0,5.63-3.2c4.6-2.92,9.23-6.29,9.91-12a16.09,16.09,0,0,0,0-4.8c-.62-3.38-3.73-5-6.75-6.34-3.87-1.66-8-2.18-12.11-2.75-25.52-3.5-50.51-9-74.09-19.79C869.13,658.15,855,648.73,843.1,636a127.94,127.94,0,0,1-22.83-35c-4.54-10.06-8.78-20.26-11.64-30.94a109,109,0,0,1-2.87-39.74c1.72-16.68,6.47-32.57,12.45-48.14a333.34,333.34,0,0,1,14.22-32.76,10.52,10.52,0,0,0,.41-1.11l-2.69-.28c-8.37-1-13.83-5.9-17.29-13.17-1.07-2.23-1.14-5-1.55-7.48a346.43,346.43,0,0,1-4-61.21c.22-14,1.17-28,2.64-41.9.63-6,1.42-12.07,2.27-18.08a15.31,15.31,0,0,1,9.41-12.42,20.83,20.83,0,0,1,9.08-1.87q31.44.5,62.87,1c1,0,2.07,0,3.23,0" transform="translate(-167.03 -154.58)"/><path class="cls-1" d="M373.36,444.45a25.93,25.93,0,0,0,51.44,4.74c3.94-21.95,7.74-43.92,11.62-65.89q6.84-38.73,13.69-77.45a54,54,0,0,0,1.07-8.55,25.88,25.88,0,0,0-51.32-5c-3.28,18.09-6.42,36.21-9.61,54.32l-8.88,50.3q-3.87,22-7.72,43.93A35.26,35.26,0,0,0,373.36,444.45Z" transform="translate(-167.03 -154.58)"/><path class="cls-1" d="M600.65,370.27q0-36.72,0-73.44a28.06,28.06,0,0,0-2-11.24,25.92,25.92,0,0,0-49.36,5.17,30.43,30.43,0,0,0-.49,5.48q0,74.16,0,148.32c0,12.35,7.49,22.39,18.92,25.65a25.86,25.86,0,0,0,32.9-23.86c0-1.36,0-2.72,0-4.08Z" transform="translate(-167.03 -154.58)"/><path class="cls-1" d="M479.1,620.5a2.59,2.59,0,0,0-3.78-2.39,7.94,7.94,0,0,0-1.89,1.45q-24.36,22.61-48.69,45.25a8.73,8.73,0,0,0-1.46,1.58,2.71,2.71,0,0,0,.25,3.32,2.65,2.65,0,0,0,3.3.43,8.11,8.11,0,0,0,1.49-1.19l49.06-45.57C478.27,622.56,479.17,621.75,479.1,620.5Z" transform="translate(-167.03 -154.58)"/><path class="cls-1" d="M371.45,524a14,14,0,1,0,14-14.05A13.93,13.93,0,0,0,371.45,524Z" transform="translate(-167.03 -154.58)"/><path class="cls-1" d="M326.23,620.22a14,14,0,1,0,14,14A13.95,13.95,0,0,0,326.23,620.22Z" transform="translate(-167.03 -154.58)"/><path class="cls-1" d="M245.28,715.23a14,14,0,1,0,14,13.91A13.91,13.91,0,0,0,245.28,715.23Z" transform="translate(-167.03 -154.58)"/><path class="cls-1" d="M574.64,485.15a4.94,4.94,0,1,0,.22-9.87,4.94,4.94,0,1,0-.22,9.87Z" transform="translate(-167.03 -154.58)"/><path class="cls-1" d="M774.58,682.9a5.1,5.1,0,0,0-4.9-4.92,5,5,0,1,0,4.9,4.92Z" transform="translate(-167.03 -154.58)"/><path class="cls-1" d="M436.32,262.75a5,5,0,0,0-9.92,0,5,5,0,0,0,4.84,5A5,5,0,0,0,436.32,262.75Z" transform="translate(-167.03 -154.58)"/><path class="cls-1" d="M397.18,479a3.94,3.94,0,1,1-7.87-.14,3.94,3.94,0,1,1,7.87.14Z" transform="translate(-167.03 -154.58)"/><path class="cls-1" d="M202.75,750.27a4.9,4.9,0,1,0,5,5A4.94,4.94,0,0,0,202.75,750.27Z" transform="translate(-167.03 -154.58)"/><path class="cls-1" d="M938.3,696.78a5,5,0,0,0-4.89,5.13,4.93,4.93,0,1,0,4.89-5.13Z" transform="translate(-167.03 -154.58)"/><path class="cls-1" d="M408.93,687.57a4.9,4.9,0,1,0-4.86-4.82A4.8,4.8,0,0,0,408.93,687.57Z" transform="translate(-167.03 -154.58)"/><path class="cls-1" d="M895.22,240.07a5,5,0,0,0-5.17-4.82,4.94,4.94,0,1,0,5.17,4.82Z" transform="translate(-167.03 -154.58)"/><path class="cls-1" d="M744.39,475.27a4.94,4.94,0,1,0,4.9,4.84A4.94,4.94,0,0,0,744.39,475.27Z" transform="translate(-167.03 -154.58)"/><path class="cls-1" d="M361.8,721.05a4.91,4.91,0,1,0,4.85,4.91A5,5,0,0,0,361.8,721.05Z" transform="translate(-167.03 -154.58)"/><path class="cls-1" d="M806,468.64a4.93,4.93,0,0,0-9.86.07,4.93,4.93,0,1,0,9.86-.07Z" transform="translate(-167.03 -154.58)"/><path class="cls-1" d="M507.45,662.44a4.91,4.91,0,1,0-9.81-.09,4.91,4.91,0,1,0,9.81.09Z" transform="translate(-167.03 -154.58)"/><path class="cls-1" d="M490.06,603.06a4.91,4.91,0,1,0,9.81.23,4.91,4.91,0,1,0-9.81-.23Z" transform="translate(-167.03 -154.58)"/><path class="cls-1" d="M574.86,255.81a4.9,4.9,0,1,0,4.86,4.89A4.94,4.94,0,0,0,574.86,255.81Z" transform="translate(-167.03 -154.58)"/><path class="cls-1" d="M744.39,255.8a4.9,4.9,0,1,0-.08,9.8,4.9,4.9,0,1,0,.08-9.8Z" transform="translate(-167.03 -154.58)"/><path class="cls-1" d="M313.7,222.71a4.67,4.67,0,0,0-4.63,5,4.8,4.8,0,0,0,4.89,4.58,4.94,4.94,0,0,0,4.69-4.83A4.79,4.79,0,0,0,313.7,222.71Z" transform="translate(-167.03 -154.58)"/><path class="cls-1" d="M310.15,497.61a4.93,4.93,0,1,0-4.89-4.84A4.91,4.91,0,0,0,310.15,497.61Z" transform="translate(-167.03 -154.58)"/><path class="cls-1" d="M464.8,180.24a4.69,4.69,0,0,0-4.86-4.55,4.83,4.83,0,0,0-4.71,5,4.89,4.89,0,0,0,4.92,4.58A4.76,4.76,0,0,0,464.8,180.24Z" transform="translate(-167.03 -154.58)"/><path class="cls-1" d="M719.45,371c0,24.64,0,49.29,0,73.93a25.26,25.26,0,0,0,5.67,16.66,24.9,24.9,0,0,0,44-13.22,39.48,39.48,0,0,0,.21-4.07q0-73.44,0-146.88c0-8.15-2.6-15.15-9-20.35-8-6.5-17-7.84-26.29-3.58s-14.18,11.84-14.61,22.15c-.05,1,0,2.08,0,3.12Z" transform="translate(-167.03 -154.58)"/></svg>